# xmcd
#
# Track frame offsets:
#	150
#	15013
#	30067
#	45015
#	60786
#	76078
#	93088
#	107571
#	124919
#	138157
#	153405
#	168155
#	182564
#	197180
#
# Disc length: 2847
#
# Revision: 2
# Processed by: cddbd v1.5.1PL0 Copyright (c) Steve Scherf et al.
# Submitted via: audiograbber 1.83.01
# Normalized: r1:DSETVAR1
#
DISCID=870b1d0e
DTITLE=Various Artist - Goldene Schlagerparade 5/2002
DYEAR=2002
DGENRE=Country
TTITLE0=Andrea Berg - Geh doch wenn du sie liebst
TTITLE1=Roland Kaiser - Jeder gegen jeden
TTITLE2=Styrina - Mi Amor (No senor!)
TTITLE3=Münchner Freiheit - Wachgeküsst
TTITLE4=Rosanna Rocci and Michael Morgan - Un Anno D'Amore
TTITLE5=Guido Raphael - Der Clown der nie lacht
TTITLE6=Ireen Sheer - Jede Nacht mir dir ist Wahnsinn
TTITLE7=Peter Lorenz - Lass mich in Dein Leben
TTITLE8=Gaby Baginsky - Baila Baila - tanz' heut Nacht für mich
TTITLE9=Rene Meyer - Auch wenn der Wind sich dreht
TTITLE10=Petra Frey - Lieb mich noch einmal
TTITLE11=Leonard - Du bist das Leben
TTITLE12=Simone Christ - 1000 kleine Feuer
TTITLE13=Roger Whittaker - Wann hast du zuletzt geträumt von mir
EXTD=
EXTT0=
EXTT1=
EXTT2=
EXTT3=
EXTT4=
EXTT5=
EXTT6=
EXTT7=
EXTT8=
EXTT9=
EXTT10=
EXTT11=
EXTT12=
EXTT13=
PLAYORDER=
